<svg width="19" height="19" viewBox="0 0 19 19" fill="none" xmlns="http://www.w3.org/2000/svg">
<path d="M18.3446 10.5613C18.5415 10.4626 18.7072 10.311 18.8229 10.1235C18.9387 9.93599 19 9.71999 19 9.49965C19 9.27931 18.9387 9.06332 18.8229 8.87583C18.7072 8.68834 18.5415 8.53675 18.3446 8.43803L1.71894 0.12552C1.51279 0.0223787 1.28108 -0.0185416 1.05208 0.00775121C0.823076 0.0340441 0.606676 0.126414 0.429275 0.273592C0.251875 0.42077 0.121143 0.616394 0.05303 0.836601C-0.0150834 1.05681 -0.0176354 1.29208 0.0456847 1.51371L1.74268 7.45121C1.81366 7.69937 1.96357 7.91765 2.16971 8.07299C2.37584 8.22834 2.62698 8.3123 2.8851 8.31215L8.31337 8.31215C8.62832 8.31215 8.93038 8.43726 9.15309 8.65996C9.3758 8.88266 9.50091 9.18471 9.50091 9.49965C9.50091 9.8146 9.3758 10.1166 9.15309 10.3393C8.93038 10.562 8.62832 10.6872 8.31337 10.6872L2.8851 10.6872C2.62698 10.687 2.37584 10.771 2.16971 10.9263C1.96357 11.0817 1.81366 11.2999 1.74268 11.5481L0.0468702 17.4856C-0.0165759 17.7072 -0.0141764 17.9424 0.0537767 18.1626C0.12173 18.3828 0.252299 18.5785 0.429562 18.7258C0.606826 18.8731 0.823117 18.9656 1.05207 18.9921C1.28101 19.0186 1.51272 18.9779 1.71893 18.875L18.3446 10.5625L18.3446 10.5613Z" fill="#444444"/>
</svg>
