<svg width="30" height="30" viewBox="0 0 30 30" fill="none" xmlns="http://www.w3.org/2000/svg">
<rect width="30" height="30" rx="2" fill="#1681EC"/>
<path d="M17.8284 12.8284C18.5786 12.0783 19 11.0609 19 10C19 8.93913 18.5786 7.92172 17.8284 7.17157C17.0783 6.42143 16.0609 6 15 6C13.9391 6 12.9217 6.42143 12.1716 7.17157C11.4214 7.92172 11 8.93913 11 10C11 11.0609 11.4214 12.0783 12.1716 12.8284C12.9217 13.5786 13.9391 14 15 14C16.0609 14 17.0783 13.5786 17.8284 12.8284Z" stroke="white" stroke-width="2" stroke-linecap="round" stroke-linejoin="round"/>
<path d="M10.0503 19.0503C11.363 17.7375 13.1435 17 15 17C16.8565 17 18.637 17.7375 19.9497 19.0503C21.2625 20.363 22 22.1435 22 24H8C8 22.1435 8.7375 20.363 10.0503 19.0503Z" stroke="white" stroke-width="2" stroke-linecap="round" stroke-linejoin="round"/>
</svg>
